# File created by Blade
# Date/Time:  Thu Sep 25 19:43:58 2014
# Frame Rate: 120.000 fps
#------------------------------------------------------
:FULLY-SPECIFIED
:DEGREES
960
root 2.805215 14.123698 -9.791624 21.675089 32.876782 -16.800979
Spine 10.840420 10.478933 -37.118758
Head 12.163148 -9.197626 1.294469
LeftShoulder 5.817383 4.270405 16.102649
LeftArm 33.444978 12.425573 -36.309428
LeftForeArm 25.701623 0.000000 19.818818
LeftHand -36.190082 -0.000000 101.823904
LeftHandThumb1 -26.253704 0.000000 33.147579
RightShoulder -12.785358 24.567355 -46.294519
RightArm 70.849325 41.471229 45.194412
RightForeArm 26.388376 0.000000 23.415223
RightHand 3.764464 -0.000000 -5.725301
RightHandThumb1 -24.326973 -0.000000 -32.862282
LeftUpLeg -137.832733 35.080208 -11.357809
LeftLeg 120.015246 -0.000000 -0.000000
LeftFoot -22.691007 -29.792293 -1.711400
LeftToeBase 8.162313 -0.000000 -0.000000
RightUpLeg 1.688408 -28.539257 -40.473237
RightLeg 8.822332 -0.000000 -0.000000
RightFoot 5.350129 -29.011207 -1.425553
RightToeBase 7.308619 -0.000000 -0.000000
961
root 2.808575 14.121207 -9.779844 21.656797 32.853837 -16.803596
Spine 10.806288 10.455107 -37.145264
Head 12.063397 -9.155075 1.233055
LeftShoulder 5.811531 4.183315 16.137337
LeftArm 33.369066 12.582618 -36.327029
LeftForeArm 25.651757 -0.000000 19.710899
LeftHand -36.210773 -0.000000 101.893079
LeftHandThumb1 -26.253704 0.000000 33.147579
RightShoulder -12.779567 24.506061 -46.278350
RightArm 70.960899 41.460196 45.174389
RightForeArm 26.393652 -0.000000 23.331027
RightHand 3.795983 0.000000 -5.729550
RightHandThumb1 -24.326973 -0.000000 -32.862282
LeftUpLeg -137.797343 35.136180 -11.311455
LeftLeg 120.051539 -0.000000 -0.000000
LeftFoot -22.723715 -29.801088 -1.696524
LeftToeBase 8.181525 -0.000000 -0.000000
RightUpLeg 1.714895 -28.578320 -40.489821
RightLeg 8.810569 -0.000000 -0.000000
RightFoot 5.348486 -28.943381 -1.438652
RightToeBase 7.292929 -0.000000 -0.000000
962
root 2.811186 14.119188 -9.769162 21.632511 32.826930 -16.819235
Spine 10.775254 10.434973 -37.158694
Head 11.930320 -9.122947 1.187143
LeftShoulder 5.803901 4.122778 16.177029
LeftArm 33.320586 12.670569 -36.387781
LeftForeArm 25.638616 -0.000000 19.560798
LeftHand -36.221349 0.000000 102.012311
LeftHandThumb1 -26.253704 0.000000 33.147579
RightShoulder -12.783582 24.453967 -46.279136
RightArm 70.982956 41.439791 45.004460
RightForeArm 26.524728 0.000000 23.221453
RightHand 3.745545 -0.000000 -5.574460
RightHandThumb1 -24.326973 -0.000000 -32.862282
LeftUpLeg -137.765959 35.197535 -11.264490
LeftLeg 120.082732 -0.000000 -0.000000
LeftFoot -22.760895 -29.819543 -1.702197
LeftToeBase 8.151145 -0.000000 -0.000000
RightUpLeg 1.722126 -28.550456 -40.486148
RightLeg 8.815874 -0.000000 -0.000000
RightFoot 5.326968 -28.943723 -1.394904
RightToeBase 7.279613 -0.000000 -0.000000
963
root 2.813215 14.117520 -9.758427 21.608097 32.808650 -16.830506
Spine 10.752775 10.409549 -37.168632
Head 11.786631 -9.105644 1.107434
LeftShoulder 5.801669 4.096137 16.213944
LeftArm 33.289109 12.755117 -36.415146
LeftForeArm 25.599275 -0.000000 19.427309
LeftHand -36.224943 -0.000000 102.092716
LeftHandThumb1 -26.253704 0.000000 33.147579
RightShoulder -12.789579 24.341756 -46.266300
RightArm 71.135931 41.467345 45.012388
RightForeArm 26.586461 -0.000000 23.155670
RightHand 3.773298 0.000000 -5.522504
RightHandThumb1 -24.326973 -0.000000 -32.862282
LeftUpLeg -137.727605 35.248619 -11.212525
LeftLeg 120.107741 -0.000000 -0.000000
LeftFoot -22.764229 -29.847162 -1.749536
LeftToeBase 8.124196 -0.000000 -0.000000
RightUpLeg 1.742890 -28.561345 -40.485280
RightLeg 8.809397 -0.000000 -0.000000
RightFoot 5.332993 -28.914578 -1.427584
RightToeBase 7.368108 -0.000000 -0.000000
964
root 2.815801 14.114402 -9.748509 21.582169 32.778903 -16.838977
Spine 10.727644 10.390159 -37.184053
Head 11.625128 -9.113209 1.018794
LeftShoulder 5.794313 4.145559 16.243012
LeftArm 33.320331 12.768552 -36.418282
LeftForeArm 25.568994 -0.000000 19.273434
LeftHand -36.273744 -0.000000 102.311714
LeftHandThumb1 -26.253704 0.000000 33.147579
RightShoulder -12.795833 24.297593 -46.261763
RightArm 71.280560 41.472729 45.077152
RightForeArm 26.531384 -0.000000 23.131821
RightHand 3.786674 0.000000 -5.490855
RightHandThumb1 -24.326973 -0.000000 -32.862282
LeftUpLeg -137.686465 35.306724 -11.158312
LeftLeg 120.142604 -0.000000 -0.000000
LeftFoot -22.811678 -29.840074 -1.744615
LeftToeBase 8.107134 -0.000000 -0.000000
RightUpLeg 1.753779 -28.519163 -40.486445
RightLeg 8.810758 -0.000000 -0.000000
RightFoot 5.320986 -28.942735 -1.424062
RightToeBase 7.317640 -0.000000 -0.000000
965
root 2.818427 14.112217 -9.739558 21.558329 32.754203 -16.842197
Spine 10.711117 10.378490 -37.195606
Head 11.467160 -9.149778 0.917398
LeftShoulder 5.796040 4.181002 16.293558
LeftArm 33.341249 12.839441 -36.419922
LeftForeArm 25.384917 -0.000000 19.146472
LeftHand -36.181738 -0.000000 102.326268
LeftHandThumb1 -26.253704 0.000000 33.147579
RightShoulder -12.792453 24.250591 -46.256643
RightArm 71.355165 41.468279 45.017441
RightForeArm 26.632444 -0.000000 23.069774
RightHand 3.895654 -0.000000 -5.601763
RightHandThumb1 -24.326973 -0.000000 -32.862282
LeftUpLeg -137.638750 35.358544 -11.103865
LeftLeg 120.169866 -0.000000 -0.000000
LeftFoot -22.831304 -29.865933 -1.777948
LeftToeBase 8.113389 -0.000000 -0.000000
RightUpLeg 1.768339 -28.482902 -40.491923
RightLeg 8.815785 -0.000000 -0.000000
RightFoot 5.322368 -28.935826 -1.446588
RightToeBase 7.299131 -0.000000 -0.000000
966
root 2.820425 14.109271 -9.730809 21.523171 32.744002 -16.852378
Spine 10.710639 10.358300 -37.187347
Head 11.302008 -9.200548 0.791599
LeftShoulder 5.787903 4.199149 16.296235
LeftArm 33.386732 12.926868 -36.359580
LeftForeArm 25.274500 -0.000000 18.984686
LeftHand -36.191857 -0.000000 102.497153
LeftHandThumb1 -26.253704 0.000000 33.147579
RightShoulder -12.796128 24.211990 -46.255563
RightArm 71.467411 41.486414 45.022544
RightForeArm 26.577482 -0.000000 23.045259
RightHand 3.822824 0.000000 -5.485743
RightHandThumb1 -24.326973 -0.000000 -32.862282
LeftUpLeg -137.589574 35.393889 -11.041607
LeftLeg 120.195421 -0.000000 -0.000000
LeftFoot -22.858407 -29.861871 -1.793741
LeftToeBase 8.116967 -0.000000 -0.000000
RightUpLeg 1.799173 -28.452631 -40.498340
RightLeg 8.825360 -0.000000 -0.000000
RightFoot 5.310824 -28.937180 -1.481513
RightToeBase 7.344550 -0.000000 -0.000000
967
root 2.823298 14.106314 -9.722818 21.494648 32.721340 -16.862084
Spine 10.696602 10.362826 -37.182126
Head 11.140611 -9.242395 0.701612
LeftShoulder 5.785694 4.179746 16.303081
LeftArm 33.412621 13.031192 -36.321751
LeftForeArm 25.191771 -0.000000 18.838487
LeftHand -36.221321 -0.000000 102.586421
LeftHandThumb1 -26.253704 0.000000 33.147579
RightShoulder -12.798925 24.184176 -46.254566
RightArm 71.570114 41.493688 45.051898
RightForeArm 26.554926 -0.000000 23.063949
RightHand 3.764119 -0.000000 -5.526964
RightHandThumb1 -24.326973 -0.000000 -32.862282
LeftUpLeg -137.546019 35.439145 -10.986410
LeftLeg 120.230400 -0.000000 -0.000000
LeftFoot -22.886693 -29.863137 -1.826840
LeftToeBase 8.126261 -0.000000 -0.000000
RightUpLeg 1.808948 -28.403257 -40.497001
RightLeg 8.833332 -0.000000 -0.000000
RightFoot 5.308241 -28.960567 -1.506033
RightToeBase 7.284638 -0.000000 -0.000000
968
root 2.825449 14.103504 -9.714981 21.464822 32.702821 -16.859137
Spine 10.697052 10.357081 -37.184674
Head 10.961020 -9.283557 0.587166
LeftShoulder 5.761939 4.238413 16.310159
LeftArm 33.489861 13.046527 -36.272141
LeftForeArm 25.065092 -0.000000 18.683229
LeftHand -36.119161 -0.000000 102.655148
LeftHandThumb1 -26.253704 0.000000 33.147579
RightShoulder -12.783967 24.129125 -46.248081
RightArm 71.661001 41.534955 45.025619
RightForeArm 26.590398 -0.000000 23.040421
RightHand 3.826483 -0.000000 -5.545639
RightHandThumb1 -24.326973 -0.000000 -32.862282
LeftUpLeg -137.490381 35.479961 -10.930476
LeftLeg 120.255643 -0.000000 -0.000000
LeftFoot -22.919729 -29.875784 -1.840163
LeftToeBase 8.136944 -0.000000 -0.000000
RightUpLeg 1.836081 -28.387173 -40.518564
RightLeg 8.839547 -0.000000 -0.000000
RightFoot 5.297653 -28.946790 -1.525161
RightToeBase 7.323837 -0.000000 -0.000000
